<svg width="72" height="64" viewBox="0 0 72 64" fill="none" xmlns="http://www.w3.org/2000/svg">
<path fill-rule="evenodd" clip-rule="evenodd" d="M57.7881 45.3896C57.7611 45.4366 57.7333 45.4832 57.7048 45.5294C57.4349 45.9886 57.1945 46.464 56.9868 46.9548C54.2517 53.418 48.8046 58.6349 41.9355 61.5235C41.9769 61.5237 42.0184 61.5237 42.0599 61.5237C56.5669 61.5237 68.1987 51.3587 68.9472 38.8101C64.1764 39.1847 60.018 41.7092 57.7881 45.3896ZM55.6565 44.1228C58.555 39.3263 64.0886 36.2856 70.1823 36.2856H71.4663V37.5237C71.4663 52.2687 58.1711 63.9999 42.0599 63.9999C39.8176 63.9999 37.6331 63.7737 35.5318 63.3443L29.5898 62.1301L35.5323 60.9183C44.4133 59.1074 51.5685 53.3946 54.7015 45.9914C54.9548 45.3926 55.2471 44.8161 55.573 44.263L55.5801 44.2509L55.5876 44.2389C55.6063 44.2087 55.6239 44.1791 55.6405 44.15L55.6483 44.1363L55.6565 44.1228Z" fill="#141414"/>
<path fill-rule="evenodd" clip-rule="evenodd" d="M41.9356 2.47644C48.8047 5.36492 54.2516 10.5817 56.9868 17.0455C57.1922 17.5309 57.4296 18.0012 57.6959 18.4556C57.7103 18.4783 57.725 18.5029 57.7395 18.5293C57.7537 18.5539 57.7696 18.5801 57.7877 18.609L57.8047 18.6361L57.8152 18.6549C57.8159 18.656 57.8166 18.6573 57.8174 18.6587C60.0538 22.3138 64.1968 24.8171 68.9471 25.1898C68.1987 12.6416 56.5668 2.47619 42.0598 2.47619C42.0184 2.47619 41.977 2.47627 41.9356 2.47644ZM35.5317 0.655651C37.633 0.22622 39.8176 0 42.0598 0C58.1711 0 71.4662 11.7317 71.4662 26.4762V27.7143H70.1823C64.1126 27.7143 58.5987 24.6992 55.691 19.9342L55.6785 19.9137L55.6727 19.9033C55.651 19.8685 55.6291 19.8323 55.607 19.7948L55.6067 19.7944L55.573 19.7372C55.247 19.1841 54.9548 18.6077 54.7014 18.0089C51.5685 10.605 44.4133 4.89245 35.5323 3.08163L29.5898 1.86998L35.5317 0.655651ZM55.6747 19.9066C55.6756 19.9082 55.6762 19.9092 55.6747 19.9066V19.9066Z" fill="#141414"/>
<path fill-rule="evenodd" clip-rule="evenodd" d="M2.51921 25.1903C7.28735 24.8181 11.4447 22.3125 13.6876 18.6556L13.6991 18.635L13.7161 18.6079C13.7374 18.5742 13.7555 18.5441 13.7716 18.5159L13.7875 18.488L13.7981 18.4715C14.0692 18.0119 14.3107 17.536 14.5192 17.0446C17.2621 10.5807 22.7236 5.36477 29.6102 2.47669C29.5682 2.47652 29.5263 2.47643 29.4842 2.47643C14.9319 2.47643 3.26964 12.6446 2.51921 25.1903ZM0 26.4764C0 11.729 13.3328 0.000244141 29.4842 0.000244141C31.7323 0.000244141 33.9226 0.226416 36.0293 0.655761L41.9884 1.87023L36.0287 3.08201C27.1206 4.89329 19.9451 10.607 16.8036 18.0103C16.5506 18.6066 16.2589 19.1807 15.9337 19.7316C15.9255 19.7458 15.9184 19.7575 15.9132 19.7658C15.887 19.8111 15.8608 19.8545 15.8351 19.896C15.8274 19.9094 15.8165 19.9278 15.8029 19.9493C12.8848 24.7066 7.36126 27.7145 1.28297 27.7145H0V26.4764Z" fill="#141414"/>
<path fill-rule="evenodd" clip-rule="evenodd" d="M0 36.2856H1.28297C7.39104 36.2856 12.9391 39.3249 15.8458 44.1215L15.8479 44.125L15.85 44.1284C15.8667 44.1564 15.8836 44.1847 15.9003 44.2127C15.9092 44.2277 15.9181 44.2425 15.9268 44.2572L15.9277 44.2586L15.9285 44.26C16.2578 44.8153 16.55 45.3925 16.8036 45.9902C19.9451 53.3928 27.1206 59.1068 36.0287 60.9182L41.9884 62.1301L36.0292 63.3444C33.9226 63.7738 31.7323 63.9999 29.4842 63.9999C13.3328 63.9999 0 52.2717 0 37.5237V36.2856ZM2.51921 38.8099C3.26963 51.356 14.9319 61.5237 29.4842 61.5237C29.5263 61.5237 29.5683 61.5237 29.6103 61.5235C22.7237 58.6353 17.2621 53.4193 14.5192 46.956C14.309 46.4605 14.067 45.9825 13.7943 45.5225C13.7694 45.4807 13.7454 45.4405 13.721 45.3997C11.4858 41.7138 7.31075 39.1841 2.51921 38.8099Z" fill="#141414"/>
</svg>
