<svg width="124" height="51" viewBox="0 0 124 51" fill="none" xmlns="http://www.w3.org/2000/svg">
<ellipse cx="16.2857" cy="25.5" rx="16.2857" ry="25.5" fill="#959CD0"/>
<ellipse cx="32.5714" cy="25.5" rx="16.2857" ry="25.5" fill="#D1DDCA"/>
<ellipse cx="48.8572" cy="25.5" rx="16.2857" ry="25.5" fill="black" fill-opacity="0.8"/>
<path d="M53.46 30.1V33H51.72C50.48 33 49.5133 32.7 48.82 32.1C48.1267 31.4867 47.78 30.4933 47.78 29.12V24.68H46.42V21.84H47.78V19.12H51.2V21.84H53.44V24.68H51.2V29.16C51.2 29.4933 51.28 29.7333 51.44 29.88C51.6 30.0267 51.8667 30.1 52.24 30.1H53.46ZM58.785 23.7C59.185 23.0867 59.685 22.6067 60.285 22.26C60.885 21.9 61.5517 21.72 62.285 21.72V25.34H61.345C60.4917 25.34 59.8517 25.5267 59.425 25.9C58.9983 26.26 58.785 26.9 58.785 27.82V33H55.365V21.84H58.785V23.7Z" fill="#F1F1F1"/>
<path d="M68.96 20.68C68.36 20.68 67.8667 20.5067 67.48 20.16C67.1067 19.8 66.92 19.36 66.92 18.84C66.92 18.3067 67.1067 17.8667 67.48 17.52C67.8667 17.16 68.36 16.98 68.96 16.98C69.5467 16.98 70.0267 17.16 70.4 17.52C70.7867 17.8667 70.98 18.3067 70.98 18.84C70.98 19.36 70.7867 19.8 70.4 20.16C70.0267 20.5067 69.5467 20.68 68.96 20.68ZM70.66 21.84V33H67.24V21.84H70.66ZM76.5584 23.42C76.8784 22.9 77.3384 22.48 77.9384 22.16C78.5384 21.84 79.2251 21.68 79.9984 21.68C80.9184 21.68 81.7518 21.9133 82.4984 22.38C83.2451 22.8467 83.8318 23.5133 84.2584 24.38C84.6984 25.2467 84.9184 26.2533 84.9184 27.4C84.9184 28.5467 84.6984 29.56 84.2584 30.44C83.8318 31.3067 83.2451 31.98 82.4984 32.46C81.7518 32.9267 80.9184 33.16 79.9984 33.16C79.2118 33.16 78.5251 33.0067 77.9384 32.7C77.3518 32.38 76.8918 31.96 76.5584 31.44V33H73.1384V18.2H76.5584V23.42ZM81.4384 27.4C81.4384 26.5467 81.1984 25.88 80.7184 25.4C80.2518 24.9067 79.6718 24.66 78.9784 24.66C78.2984 24.66 77.7184 24.9067 77.2384 25.4C76.7718 25.8933 76.5384 26.5667 76.5384 27.42C76.5384 28.2733 76.7718 28.9467 77.2384 29.44C77.7184 29.9333 78.2984 30.18 78.9784 30.18C79.6584 30.18 80.2384 29.9333 80.7184 29.44C81.1984 28.9333 81.4384 28.2533 81.4384 27.4ZM97.2327 27.24C97.2327 27.56 97.2127 27.8933 97.1727 28.24H89.4327C89.486 28.9333 89.706 29.4667 90.0927 29.84C90.4927 30.2 90.9793 30.38 91.5527 30.38C92.406 30.38 92.9993 30.02 93.3327 29.3H96.9727C96.786 30.0333 96.446 30.6933 95.9527 31.28C95.4727 31.8667 94.866 32.3267 94.1327 32.66C93.3993 32.9933 92.5793 33.16 91.6727 33.16C90.5793 33.16 89.606 32.9267 88.7527 32.46C87.8993 31.9933 87.2327 31.3267 86.7527 30.46C86.2727 29.5933 86.0327 28.58 86.0327 27.42C86.0327 26.26 86.266 25.2467 86.7327 24.38C87.2127 23.5133 87.8793 22.8467 88.7327 22.38C89.586 21.9133 90.566 21.68 91.6727 21.68C92.7527 21.68 93.7127 21.9067 94.5527 22.36C95.3927 22.8133 96.046 23.46 96.5127 24.3C96.9927 25.14 97.2327 26.12 97.2327 27.24ZM93.7327 26.34C93.7327 25.7533 93.5327 25.2867 93.1327 24.94C92.7327 24.5933 92.2327 24.42 91.6327 24.42C91.0593 24.42 90.5727 24.5867 90.1727 24.92C89.786 25.2533 89.546 25.7267 89.4527 26.34H93.7327ZM103.577 33.16C102.604 33.16 101.737 32.9933 100.977 32.66C100.217 32.3267 99.6169 31.8733 99.1769 31.3C98.7369 30.7133 98.4902 30.06 98.4369 29.34H101.817C101.857 29.7267 102.037 30.04 102.357 30.28C102.677 30.52 103.07 30.64 103.537 30.64C103.964 30.64 104.29 30.56 104.517 30.4C104.757 30.2267 104.877 30.0067 104.877 29.74C104.877 29.42 104.71 29.1867 104.377 29.04C104.044 28.88 103.504 28.7067 102.757 28.52C101.957 28.3333 101.29 28.14 100.757 27.94C100.224 27.7267 99.7635 27.4 99.3769 26.96C98.9902 26.5067 98.7969 25.9 98.7969 25.14C98.7969 24.5 98.9702 23.92 99.3169 23.4C99.6769 22.8667 100.197 22.4467 100.877 22.14C101.57 21.8333 102.39 21.68 103.337 21.68C104.737 21.68 105.837 22.0267 106.637 22.72C107.45 23.4133 107.917 24.3333 108.037 25.48H104.877C104.824 25.0933 104.65 24.7867 104.357 24.56C104.077 24.3333 103.704 24.22 103.237 24.22C102.837 24.22 102.53 24.3 102.317 24.46C102.104 24.6067 101.997 24.8133 101.997 25.08C101.997 25.4 102.164 25.64 102.497 25.8C102.844 25.96 103.377 26.12 104.097 26.28C104.924 26.4933 105.597 26.7067 106.117 26.92C106.637 27.12 107.09 27.4533 107.477 27.92C107.877 28.3733 108.084 28.9867 108.097 29.76C108.097 30.4133 107.91 31 107.537 31.52C107.177 32.0267 106.65 32.4267 105.957 32.72C105.277 33.0133 104.484 33.16 103.577 33.16Z" fill="black" fill-opacity="0.8"/>
</svg>
